<svg width="97" height="28" viewBox="0 0 97 28" fill="none" xmlns="http://www.w3.org/2000/svg">
<g clip-path="url(#clip0_320_22)">
<path d="M0.388672 27.5019V6.59766H4.92787V27.5019H0.388672Z" fill="#F04C16"/>
<path d="M22.2638 16.4824C23.1796 16.9602 23.8864 17.6371 24.3841 18.5131C24.9017 19.3692 25.1605 20.3547 25.1605 21.4696C25.1605 23.1419 24.5135 24.5654 23.2194 25.74C21.9453 26.9146 20.4023 27.5019 18.5906 27.5019H9.69141V6.59766H18.3517C20.1435 6.59766 21.6367 7.11529 22.8312 8.15055C24.0257 9.1659 24.623 10.4401 24.623 11.9731C24.623 12.869 24.414 13.7151 23.9959 14.5114C23.5778 15.3078 23.0004 15.9648 22.2638 16.4824ZM20.2331 12.6898C20.2331 12.3513 20.1734 12.0527 20.0539 11.7939C19.9544 11.5152 19.8051 11.2763 19.606 11.0772C19.4069 10.8781 19.158 10.7288 18.8594 10.6292C18.5807 10.5098 18.2621 10.4501 17.9038 10.4501H14.141V14.8997H17.9038C18.6205 14.8997 19.1879 14.7006 19.606 14.3024C20.0241 13.8843 20.2331 13.3468 20.2331 12.6898ZM18.1427 23.3509C18.8793 23.3509 19.4766 23.1319 19.9345 22.6939C20.3924 22.2559 20.6213 21.6885 20.6213 20.9917C20.6213 20.3148 20.3924 19.7574 19.9345 19.3194C19.4766 18.8814 18.8793 18.6624 18.1427 18.6624H14.141V23.3509H18.1427ZM40.349 27.5019L36.2876 20.3646H33.3909V27.5019H28.8517V6.59766H37.3029C38.6766 6.59766 39.9209 6.8963 41.0358 7.49356C42.1507 8.07091 43.0168 8.88717 43.6339 9.94234C44.271 10.9975 44.5895 12.1921 44.5895 13.526C44.5895 14.8598 44.2511 16.0643 43.5742 17.1394C42.8973 18.2145 41.9715 19.0307 40.7969 19.5882L45.4257 27.5019H40.349ZM33.3909 10.7785V16.1838H37.0043C37.9201 16.1838 38.6468 15.9349 39.1843 15.4372C39.7418 14.9395 40.0205 14.2924 40.0205 13.4961C40.0205 12.9586 39.901 12.4907 39.6621 12.0925C39.4232 11.6744 39.0748 11.3559 38.6169 11.1369C38.159 10.898 37.6215 10.7785 37.0043 10.7785H33.3909ZM62.3066 27.5019L60.8433 23.5301H52.5114L51.078 27.5019H46.2999L54.4824 6.59766H58.7528L67.2041 27.5019H62.3066ZM56.6624 12.1224L53.9449 19.5882H59.4098L56.6624 12.1224ZM69.8552 27.5019V6.59766H74.3944V27.5019H69.8552ZM92.4175 6.59766H96.8372V27.5019H93.0745L83.6078 14.4517V27.5019H79.1582V6.59766H83.2495L92.4175 19.3493V6.59766Z" fill="#101010"/>
<path d="M4.83298 0.75H0.330078V4.92639H4.83298V0.75Z" fill="#F04C16"/>
</g>
<defs>
<clipPath id="clip0_320_22">
<rect width="97" height="28" fill="white"/>
</clipPath>
</defs>
</svg>
