<svg width="20" height="17" viewBox="0 0 20 17" fill="none" xmlns="http://www.w3.org/2000/svg">
<path d="M1.3749 7.44216C6.74359 5.18421 10.3236 3.69563 12.1148 2.97642C17.2292 0.92293 18.2919 0.566218 18.9846 0.554313C19.1369 0.551848 19.4776 0.588295 19.6982 0.761128C19.8845 0.907065 19.9358 1.1042 19.9603 1.24257C19.9848 1.38093 20.0154 1.69613 19.9911 1.94242C19.714 4.75348 18.5147 11.5752 17.9046 14.7236C17.6465 16.0559 17.1382 16.5026 16.6461 16.5463C15.5766 16.6413 14.7645 15.864 13.7287 15.2085C12.1078 14.1829 11.1921 13.5444 9.61879 12.5436C7.80053 11.3869 8.97923 10.7512 10.0154 9.71224C10.2866 9.44034 14.9987 5.30295 15.0899 4.92763C15.1013 4.88069 15.1119 4.70571 15.0042 4.61332C14.8965 4.52093 14.7376 4.55252 14.6229 4.57765C14.4604 4.61327 11.871 6.26539 6.85486 9.53403C6.11988 10.0212 5.45416 10.2586 4.8577 10.2462C4.20015 10.2324 2.93528 9.88726 1.99498 9.5922C0.84166 9.2303 -0.0749729 9.03896 0.00484519 8.42435C0.0464194 8.10422 0.503103 7.77682 1.3749 7.44216Z" fill="#289FD9"/>
</svg>
